<svg width="20" height="21" viewBox="0 0 20 21" fill="none" xmlns="http://www.w3.org/2000/svg">
<path d="M5.3425 14.875H15.625C15.9565 14.875 16.2745 14.7433 16.5089 14.5089C16.7433 14.2745 16.875 13.9565 16.875 13.625V5.5C16.875 5.16848 16.7433 4.85054 16.5089 4.61612C16.2745 4.3817 15.9565 4.25 15.625 4.25H4.375C4.04348 4.25 3.72554 4.3817 3.49112 4.61612C3.2567 4.85054 3.125 5.16848 3.125 5.5V16.65L5.3425 14.875ZM5.78125 16.125L2.89 18.4375C2.7981 18.5109 2.68736 18.5569 2.5705 18.5701C2.45365 18.5834 2.33542 18.5634 2.22941 18.5125C2.12339 18.4616 2.0339 18.3818 1.97121 18.2823C1.90851 18.1828 1.87517 18.0676 1.875 17.95V5.5C1.875 4.83696 2.13839 4.20107 2.60723 3.73223C3.07607 3.26339 3.71196 3 4.375 3H15.625C16.288 3 16.9239 3.26339 17.3928 3.73223C17.8616 4.20107 18.125 4.83696 18.125 5.5V13.625C18.125 14.288 17.8616 14.9239 17.3928 15.3928C16.9239 15.8616 16.288 16.125 15.625 16.125H5.78125Z" fill="#747474"/>
</svg>
