<svg width="27" height="27" viewBox="0 0 27 27" fill="none" xmlns="http://www.w3.org/2000/svg">
<path d="M26 8.66667V19.3333C26 21.1014 25.2976 22.7971 24.0474 24.0474C22.7971 25.2976 21.1014 26 19.3333 26H8.66667C6.89856 26 5.20286 25.2976 3.95262 24.0474C2.70238 22.7971 2 21.1014 2 19.3333V8.66667C2 6.89856 2.70238 5.20286 3.95262 3.95262C5.20286 2.70238 6.89856 2 8.66667 2H19.3333C21.1014 2 22.7971 2.70238 24.0474 3.95262C25.2976 5.20286 26 6.89856 26 8.66667Z" stroke="white" stroke-linecap="round" stroke-linejoin="round"/>
<path d="M13 21V12C13 9.812 13.5 8 17 8" stroke="white" stroke-linecap="round" stroke-linejoin="round"/>
<path d="M11 13H17" stroke="white" stroke-linecap="round" stroke-linejoin="round"/>
</svg>
