<svg width="24" height="25" viewBox="0 0 24 25" fill="none" xmlns="http://www.w3.org/2000/svg">
<g clip-path="url(#clip0_438_299)">
<path d="M17.5998 6.10005H19.1998H17.5998ZM7.1998 1.30005H16.7998C18.4972 1.30005 20.1251 1.97433 21.3253 3.17457C22.5255 4.3748 23.1998 6.00266 23.1998 7.70005V17.3C23.1998 18.9974 22.5255 20.6253 21.3253 21.8255C20.1251 23.0258 18.4972 23.7 16.7998 23.7H7.1998C5.50242 23.7 3.87455 23.0258 2.67432 21.8255C1.47409 20.6253 0.799805 18.9974 0.799805 17.3V7.70005C0.799805 6.00266 1.47409 4.3748 2.67432 3.17457C3.87455 1.97433 5.50242 1.30005 7.1998 1.30005V1.30005ZM11.9998 17.3C10.7268 17.3 9.50587 16.7943 8.60569 15.8942C7.70552 14.994 7.1998 13.7731 7.1998 12.5C7.1998 11.227 7.70552 10.0061 8.60569 9.10594C9.50587 8.20576 10.7268 7.70005 11.9998 7.70005C13.2728 7.70005 14.4937 8.20576 15.3939 9.10594C16.2941 10.0061 16.7998 11.227 16.7998 12.5C16.7998 13.7731 16.2941 14.994 15.3939 15.8942C14.4937 16.7943 13.2728 17.3 11.9998 17.3Z" stroke="white"/>
</g>
<defs>
<clipPath id="clip0_438_299">
<rect width="24" height="24" fill="white" transform="translate(0 0.5)"/>
</clipPath>
</defs>
</svg>
