<svg width="30" height="30" viewBox="0 0 30 30" fill="none" xmlns="http://www.w3.org/2000/svg">
<path d="M23.0477 19.4733C21.844 18 20.9941 17.25 20.9941 13.1883C20.9941 9.46875 19.0948 8.14359 17.5315 7.5C17.3238 7.41469 17.1284 7.21875 17.0651 7.00547C16.7909 6.07219 16.0221 5.25 15.0002 5.25C13.9784 5.25 13.2091 6.07266 12.9377 7.00641C12.8745 7.22203 12.679 7.41469 12.4713 7.5C10.9062 8.14453 9.00867 9.465 9.00867 13.1883C9.00633 17.25 8.15648 18 6.95273 19.4733C6.45398 20.0836 6.89086 21 7.7632 21H22.242C23.1096 21 23.5437 20.0808 23.0477 19.4733Z" stroke="#747474" stroke-linecap="round" stroke-linejoin="round"/>
<path d="M18 21V21.75C18 22.5456 17.6839 23.3087 17.1213 23.8713C16.5587 24.4339 15.7956 24.75 15 24.75C14.2044 24.75 13.4413 24.4339 12.8787 23.8713C12.3161 23.3087 12 22.5456 12 21.75V21" stroke="#747474" stroke-linecap="round" stroke-linejoin="round"/>
<circle cx="15" cy="15" r="14.5" stroke="#747474"/>
<circle cx="6" cy="6" r="6" fill="#EC0000"/>
</svg>
