<svg width="18" height="18" viewBox="0 0 18 18" fill="none" xmlns="http://www.w3.org/2000/svg">
<path d="M14.1719 3H10.6259C10.5156 2.99992 10.4098 3.04348 10.3316 3.12115L3.24237 10.2087C3.08714 10.3646 3 10.5757 3 10.7957C3 11.0157 3.08714 11.2267 3.24237 11.3827L6.61818 14.7577C6.77416 14.9129 6.98527 15 7.20534 15C7.4254 15 7.63651 14.9129 7.79249 14.7577L14.8788 7.67308C14.9565 7.59486 15.0001 7.48908 15 7.37885V3.83077C15.0005 3.72177 14.9795 3.61373 14.9381 3.51289C14.8967 3.41204 14.8358 3.32037 14.7588 3.24316C14.6819 3.16595 14.5904 3.10471 14.4897 3.06298C14.3889 3.02125 14.2809 2.99985 14.1719 3V3Z" stroke="#747474" stroke-linecap="round" stroke-linejoin="round"/>
<path d="M11.5 7.25C11.3517 7.25 11.2067 7.20601 11.0833 7.1236C10.96 7.04119 10.8639 6.92406 10.8071 6.78701C10.7503 6.64997 10.7355 6.49917 10.7644 6.35368C10.7934 6.2082 10.8648 6.07456 10.9697 5.96967C11.0746 5.86478 11.2082 5.79335 11.3537 5.76441C11.4992 5.73547 11.65 5.75032 11.787 5.80709C11.9241 5.86386 12.0412 5.95999 12.1236 6.08332C12.206 6.20666 12.25 6.35166 12.25 6.5C12.25 6.69891 12.171 6.88968 12.0303 7.03033C11.8897 7.17098 11.6989 7.25 11.5 7.25Z" fill="#747474"/>
</svg>
