<svg width="24" height="24" viewBox="0 0 24 24" fill="none" xmlns="http://www.w3.org/2000/svg">
<path d="M20.5715 11.1428C20.7815 11.1428 20.9841 11.2199 21.141 11.3594C21.2979 11.4989 21.3981 11.6912 21.4227 11.8997L21.4287 12V18.8571C21.4287 19.7367 21.0906 20.5827 20.4843 21.2201C19.8781 21.8574 19.0501 22.2374 18.1715 22.2814L18.0001 22.2857H6.0001C5.12047 22.2857 4.27448 21.9476 3.63712 21.3413C2.99977 20.7351 2.6198 19.9071 2.57582 19.0285L2.57153 18.8571V12C2.57178 11.7815 2.65543 11.5714 2.8054 11.4125C2.95538 11.2536 3.16035 11.158 3.37844 11.1452C3.59654 11.1324 3.81129 11.2034 3.97882 11.3436C4.14635 11.4838 4.25402 11.6827 4.27982 11.8997L4.28582 12V18.8571C4.2859 19.2894 4.44934 19.7058 4.74339 20.0227C5.03745 20.3397 5.4404 20.5338 5.87153 20.5662L6.0001 20.5714H18.0001C18.4325 20.5713 18.8488 20.4079 19.1657 20.1138C19.4827 19.8197 19.6768 19.4168 19.7092 18.9857L19.7144 18.8571V12C19.7144 11.7726 19.8047 11.5546 19.9654 11.3939C20.1262 11.2331 20.3442 11.1428 20.5715 11.1428ZM5.93925 7.42024L11.3941 1.96538C11.5417 1.8178 11.7381 1.72914 11.9464 1.71605C12.1547 1.70295 12.3606 1.76631 12.5255 1.89424L12.6061 1.96538L18.061 7.42024C18.2147 7.57449 18.3039 7.78147 18.3106 7.99914C18.3172 8.21681 18.2408 8.42885 18.0967 8.59219C17.9527 8.75553 17.7519 8.85793 17.5351 8.87858C17.3183 8.89923 17.1018 8.83659 16.9295 8.70338L16.849 8.63224L12.8572 4.64052V15.4285C12.8572 15.6385 12.7801 15.8411 12.6406 15.998C12.5011 16.1549 12.3089 16.2551 12.1004 16.2797L12.0001 16.2857C11.7902 16.2856 11.5875 16.2086 11.4306 16.069C11.2738 15.9295 11.1735 15.7373 11.149 15.5288L11.143 15.4285V4.64052L7.15125 8.63224C7.00365 8.77982 6.80728 8.86847 6.59897 8.88157C6.39067 8.89467 6.18474 8.83131 6.01982 8.70338L5.93925 8.63224C5.79167 8.48464 5.70301 8.28827 5.68991 8.07996C5.67682 7.87165 5.74018 7.66573 5.8681 7.50081L5.93925 7.42024L11.3941 1.96538L5.93925 7.42024Z" fill="#E80045"/>
</svg>
