<svg width="30" height="30" viewBox="0 0 30 30" fill="none" xmlns="http://www.w3.org/2000/svg">
<path d="M15 5.85712C15.9093 5.85712 16.7814 6.21834 17.4244 6.86132C18.0673 7.5043 18.4286 8.37637 18.4286 9.28569V11.5714C18.4286 12.4807 18.0673 13.3528 17.4244 13.9958C16.7814 14.6388 15.9093 15 15 15C14.0907 15 13.2186 14.6388 12.5756 13.9958C11.9327 13.3528 11.5714 12.4807 11.5714 11.5714V9.28569C11.5714 8.37637 11.9327 7.5043 12.5756 6.86132C13.2186 6.21834 14.0907 5.85712 15 5.85712V5.85712ZM23 21.8571V21.0251C23 17.3828 18.7874 15 15 15C11.2126 15 7 17.3828 7 21.0251V21.8571C7 22.1602 7.12041 22.4509 7.33474 22.6652C7.54906 22.8796 7.83975 23 8.14286 23H21.8571C22.1602 23 22.4509 22.8796 22.6653 22.6652C22.8796 22.4509 23 22.1602 23 21.8571Z" stroke="#747474" stroke-linecap="round" stroke-linejoin="round"/>
<circle cx="15" cy="15" r="14.5" stroke="#747474"/>
</svg>
